<svg xmlns="http://www.w3.org/2000/svg" xmlns:xlink="http://www.w3.org/1999/xlink" width="500" zoomAndPan="magnify" viewBox="0 0 375 374.999991" height="500" preserveAspectRatio="xMidYMid meet" version="1.0"><defs><g/><clipPath id="b61499f2ef"><path d="M 106 31 L 269 31 L 269 229 L 106 229 Z M 106 31 " clip-rule="nonzero"/></clipPath><clipPath id="dfb19f5c57"><path d="M 187.496094 262.183594 L 72.359375 147.046875 L 187.496094 31.910156 L 302.632812 147.046875 Z M 187.496094 262.183594 " clip-rule="nonzero"/></clipPath><clipPath id="cba23ff0d8"><path d="M 129.933594 204.617188 C 161.722656 236.410156 213.265625 236.410156 245.058594 204.617188 C 276.851562 172.828125 276.851562 121.285156 245.058594 89.492188 L 187.496094 31.929688 L 129.933594 89.492188 C 98.128906 121.273438 98.140625 172.828125 129.933594 204.617188 Z M 129.933594 204.617188 " clip-rule="nonzero"/></clipPath><clipPath id="2f765af6ed"><path d="M 131.617188 88.664062 L 243.382812 88.664062 L 243.382812 200.425781 L 131.617188 200.425781 Z M 131.617188 88.664062 " clip-rule="nonzero"/></clipPath><clipPath id="c4d915f923"><path d="M 187.5 88.664062 C 156.636719 88.664062 131.617188 113.679688 131.617188 144.542969 C 131.617188 175.40625 156.636719 200.425781 187.5 200.425781 C 218.363281 200.425781 243.382812 175.40625 243.382812 144.542969 C 243.382812 113.679688 218.363281 88.664062 187.5 88.664062 Z M 187.5 88.664062 " clip-rule="nonzero"/></clipPath><clipPath id="b11d3cf4de"><path d="M 111.667969 71.226562 L 263.746094 71.226562 L 263.746094 223 L 111.667969 223 Z M 111.667969 71.226562 " clip-rule="nonzero"/></clipPath><clipPath id="cd45c0f8b2"><path d="M 337.488281 220.3125 L 372.679688 220.3125 L 372.679688 256.761719 L 337.488281 256.761719 Z M 337.488281 220.3125 " clip-rule="nonzero"/></clipPath></defs><g clip-path="url(#b61499f2ef)"><g clip-path="url(#dfb19f5c57)"><g clip-path="url(#cba23ff0d8)"><path fill="#ff1616" d="M 187.496094 262.183594 L 72.359375 147.046875 L 187.496094 31.910156 L 302.632812 147.046875 Z M 187.496094 262.183594 " fill-opacity="1" fill-rule="nonzero"/></g></g></g><g clip-path="url(#2f765af6ed)"><g clip-path="url(#c4d915f923)"><path fill="#ffffff" d="M 131.617188 88.664062 L 243.382812 88.664062 L 243.382812 200.425781 L 131.617188 200.425781 Z M 131.617188 88.664062 " fill-opacity="1" fill-rule="nonzero"/></g></g><g clip-path="url(#b11d3cf4de)"><path fill="#ff1616" d="M 199.238281 156.804688 C 200.550781 158.371094 201.230469 160.121094 201.230469 162 C 201.230469 164.144531 200.441406 166.09375 198.894531 167.804688 C 197.378906 169.480469 195.003906 170.683594 191.847656 171.390625 L 190.613281 171.664062 L 190.613281 152.164062 L 191.960938 152.628906 C 195.558594 153.890625 197.933594 155.246094 199.238281 156.792969 Z M 178.523438 120.914062 C 177.503906 122.179688 176.988281 123.683594 176.988281 125.394531 C 176.988281 127.101562 177.503906 128.71875 178.523438 130.042969 C 179.542969 131.359375 181.210938 132.398438 183.628906 133.238281 L 184.972656 133.703125 L 184.972656 117.417969 L 183.648438 117.851562 C 181.203125 118.660156 179.523438 119.660156 178.511719 120.914062 Z M 263.304688 147.046875 C 263.304688 188.921875 229.355469 222.871094 187.480469 222.871094 C 145.605469 222.871094 111.667969 188.921875 111.667969 147.046875 C 111.667969 105.171875 145.617188 71.226562 187.492188 71.226562 C 229.363281 71.226562 263.3125 105.171875 263.3125 147.046875 Z M 218.953125 159.289062 C 218.953125 153.125 216.6875 147.957031 212.21875 143.953125 C 208.792969 140.929688 201.777344 137.988281 191.363281 135.210938 L 190.613281 135.007812 L 190.613281 117.386719 L 192.101562 118.183594 C 194.050781 119.234375 195.425781 120.265625 196.304688 121.339844 C 197.085938 122.289062 197.902344 123.816406 198.804688 126.007812 L 216.414062 123.21875 C 215.121094 118.375 212.613281 114.496094 208.945312 111.644531 C 204.992188 108.570312 199.136719 106.78125 191.554688 106.304688 L 190.605469 106.246094 L 190.605469 101.121094 L 184.972656 101.121094 L 184.972656 106.253906 L 184.011719 106.304688 C 175.714844 106.742188 169.394531 108.984375 165.25 112.96875 C 161.125 116.929688 159.042969 121.925781 159.042969 127.839844 C 159.042969 132.15625 160.074219 135.847656 162.117188 138.828125 C 164.167969 141.832031 166.625 144.035156 169.394531 145.378906 C 172.277344 146.773438 177.269531 148.464844 184.234375 150.402344 L 184.972656 150.605469 L 184.972656 171.503906 L 183.519531 170.796875 C 180.929688 169.542969 179.019531 168.046875 177.867188 166.378906 C 176.804688 164.851562 175.976562 162.578125 175.339844 159.421875 L 156.191406 161.644531 C 156.789062 164.578125 157.648438 167.125 158.71875 169.238281 C 159.910156 171.582031 161.652344 173.808594 163.875 175.839844 C 166.089844 177.871094 168.769531 179.488281 171.820312 180.640625 C 174.914062 181.804688 179.027344 182.625 184.042969 183.070312 L 184.964844 183.148438 L 184.964844 192.964844 L 190.59375 192.964844 L 190.59375 183.109375 L 191.566406 183.070312 C 195.75 182.898438 199.328125 182.339844 202.191406 181.410156 C 205.019531 180.492188 207.742188 178.996094 210.277344 176.941406 C 212.796875 174.910156 214.898438 172.332031 216.515625 169.289062 C 218.125 166.265625 218.941406 162.898438 218.941406 159.28125 Z M 218.953125 159.289062 " fill-opacity="1" fill-rule="nonzero"/></g><g fill="#ffffff" fill-opacity="1"><g transform="translate(55.388741, 336.460915)"><g><path d="M 4.4375 -15.484375 L 9.5 -2.84375 L 14.5625 -15.484375 L 17.203125 -15.484375 L 17.203125 0 L 15.171875 0 L 15.171875 -6.03125 L 15.359375 -12.546875 L 10.28125 0 L 8.703125 0 L 3.640625 -12.5 L 3.84375 -6.03125 L 3.84375 0 L 1.796875 0 L 1.796875 -15.484375 Z M 4.4375 -15.484375 "/></g></g></g><g fill="#ffffff" fill-opacity="1"><g transform="translate(78.977417, 336.460915)"><g><path d="M 6.265625 0.21875 C 4.703125 0.21875 3.429688 -0.289062 2.453125 -1.3125 C 1.472656 -2.34375 0.984375 -3.71875 0.984375 -5.4375 L 0.984375 -5.796875 C 0.984375 -6.941406 1.203125 -7.960938 1.640625 -8.859375 C 2.078125 -9.753906 2.6875 -10.453125 3.46875 -10.953125 C 4.25 -11.460938 5.097656 -11.71875 6.015625 -11.71875 C 7.515625 -11.71875 8.675781 -11.222656 9.5 -10.234375 C 10.332031 -9.253906 10.75 -7.847656 10.75 -6.015625 L 10.75 -5.1875 L 2.953125 -5.1875 C 2.984375 -4.050781 3.316406 -3.132812 3.953125 -2.4375 C 4.585938 -1.738281 5.394531 -1.390625 6.375 -1.390625 C 7.0625 -1.390625 7.644531 -1.53125 8.125 -1.8125 C 8.613281 -2.101562 9.039062 -2.484375 9.40625 -2.953125 L 10.609375 -2.015625 C 9.640625 -0.523438 8.191406 0.21875 6.265625 0.21875 Z M 6.015625 -10.109375 C 5.222656 -10.109375 4.554688 -9.816406 4.015625 -9.234375 C 3.484375 -8.660156 3.148438 -7.851562 3.015625 -6.8125 L 8.78125 -6.8125 L 8.78125 -6.953125 C 8.726562 -7.953125 8.457031 -8.726562 7.96875 -9.28125 C 7.488281 -9.832031 6.835938 -10.109375 6.015625 -10.109375 Z M 6.015625 -10.109375 "/></g></g></g><g fill="#ffffff" fill-opacity="1"><g transform="translate(95.090348, 336.460915)"><g><path d="M 1.015625 -5.84375 C 1.015625 -7.613281 1.429688 -9.035156 2.265625 -10.109375 C 3.097656 -11.179688 4.191406 -11.71875 5.546875 -11.71875 C 6.898438 -11.71875 7.96875 -11.257812 8.75 -10.34375 L 8.75 -16.34375 L 10.71875 -16.34375 L 10.71875 0 L 8.90625 0 L 8.8125 -1.234375 C 8.03125 -0.265625 6.9375 0.21875 5.53125 0.21875 C 4.195312 0.21875 3.109375 -0.328125 2.265625 -1.421875 C 1.429688 -2.515625 1.015625 -3.941406 1.015625 -5.703125 Z M 2.984375 -5.625 C 2.984375 -4.320312 3.25 -3.300781 3.78125 -2.5625 C 4.320312 -1.820312 5.066406 -1.453125 6.015625 -1.453125 C 7.265625 -1.453125 8.175781 -2.015625 8.75 -3.140625 L 8.75 -8.421875 C 8.164062 -9.503906 7.265625 -10.046875 6.046875 -10.046875 C 5.078125 -10.046875 4.320312 -9.671875 3.78125 -8.921875 C 3.25 -8.179688 2.984375 -7.082031 2.984375 -5.625 Z M 2.984375 -5.625 "/></g></g></g><g fill="#ffffff" fill-opacity="1"><g transform="translate(111.947664, 336.460915)"><g><path d="M 3.625 0 L 1.65625 0 L 1.65625 -11.5 L 3.625 -11.5 Z M 1.5 -14.5625 C 1.5 -14.875 1.59375 -15.140625 1.78125 -15.359375 C 1.976562 -15.585938 2.269531 -15.703125 2.65625 -15.703125 C 3.039062 -15.703125 3.332031 -15.585938 3.53125 -15.359375 C 3.726562 -15.140625 3.828125 -14.867188 3.828125 -14.546875 C 3.828125 -14.234375 3.726562 -13.96875 3.53125 -13.75 C 3.332031 -13.539062 3.039062 -13.4375 2.65625 -13.4375 C 2.269531 -13.4375 1.976562 -13.539062 1.78125 -13.75 C 1.59375 -13.96875 1.5 -14.238281 1.5 -14.5625 Z M 1.5 -14.5625 "/></g></g></g><g fill="#ffffff" fill-opacity="1"><g transform="translate(121.807759, 336.460915)"><g><path d="M 6.109375 -1.390625 C 6.804688 -1.390625 7.414062 -1.601562 7.9375 -2.03125 C 8.46875 -2.457031 8.757812 -2.988281 8.8125 -3.625 L 10.671875 -3.625 C 10.640625 -2.96875 10.414062 -2.335938 10 -1.734375 C 9.582031 -1.140625 9.023438 -0.664062 8.328125 -0.3125 C 7.628906 0.0390625 6.890625 0.21875 6.109375 0.21875 C 4.535156 0.21875 3.285156 -0.300781 2.359375 -1.34375 C 1.441406 -2.394531 0.984375 -3.828125 0.984375 -5.640625 L 0.984375 -5.984375 C 0.984375 -7.097656 1.1875 -8.09375 1.59375 -8.96875 C 2.007812 -9.84375 2.597656 -10.519531 3.359375 -11 C 4.128906 -11.476562 5.039062 -11.71875 6.09375 -11.71875 C 7.382812 -11.71875 8.457031 -11.332031 9.3125 -10.5625 C 10.164062 -9.789062 10.617188 -8.785156 10.671875 -7.546875 L 8.8125 -7.546875 C 8.757812 -8.296875 8.476562 -8.910156 7.96875 -9.390625 C 7.457031 -9.867188 6.832031 -10.109375 6.09375 -10.109375 C 5.09375 -10.109375 4.316406 -9.742188 3.765625 -9.015625 C 3.222656 -8.296875 2.953125 -7.257812 2.953125 -5.90625 L 2.953125 -5.53125 C 2.953125 -4.207031 3.222656 -3.1875 3.765625 -2.46875 C 4.304688 -1.75 5.085938 -1.390625 6.109375 -1.390625 Z M 6.109375 -1.390625 "/></g></g></g><g fill="#ffffff" fill-opacity="1"><g transform="translate(137.782432, 336.460915)"><g><path d="M 3.625 0 L 1.65625 0 L 1.65625 -11.5 L 3.625 -11.5 Z M 1.5 -14.5625 C 1.5 -14.875 1.59375 -15.140625 1.78125 -15.359375 C 1.976562 -15.585938 2.269531 -15.703125 2.65625 -15.703125 C 3.039062 -15.703125 3.332031 -15.585938 3.53125 -15.359375 C 3.726562 -15.140625 3.828125 -14.867188 3.828125 -14.546875 C 3.828125 -14.234375 3.726562 -13.96875 3.53125 -13.75 C 3.332031 -13.539062 3.039062 -13.4375 2.65625 -13.4375 C 2.269531 -13.4375 1.976562 -13.539062 1.78125 -13.75 C 1.59375 -13.96875 1.5 -14.238281 1.5 -14.5625 Z M 1.5 -14.5625 "/></g></g></g><g fill="#ffffff" fill-opacity="1"><g transform="translate(147.642522, 336.460915)"><g><path d="M 3.34375 -11.5 L 3.40625 -10.0625 C 4.289062 -11.164062 5.441406 -11.71875 6.859375 -11.71875 C 9.285156 -11.71875 10.515625 -10.347656 10.546875 -7.609375 L 10.546875 0 L 8.578125 0 L 8.578125 -7.609375 C 8.566406 -8.441406 8.375 -9.054688 8 -9.453125 C 7.625 -9.847656 7.046875 -10.046875 6.265625 -10.046875 C 5.628906 -10.046875 5.066406 -9.875 4.578125 -9.53125 C 4.097656 -9.195312 3.722656 -8.753906 3.453125 -8.203125 L 3.453125 0 L 1.484375 0 L 1.484375 -11.5 Z M 3.34375 -11.5 "/></g></g></g><g fill="#ffffff" fill-opacity="1"><g transform="translate(164.233972, 336.460915)"><g><path d="M 8.59375 0 C 8.476562 -0.226562 8.382812 -0.632812 8.3125 -1.21875 C 7.394531 -0.257812 6.304688 0.21875 5.046875 0.21875 C 3.910156 0.21875 2.976562 -0.101562 2.25 -0.75 C 1.519531 -1.394531 1.15625 -2.207031 1.15625 -3.1875 C 1.15625 -4.382812 1.609375 -5.316406 2.515625 -5.984375 C 3.429688 -6.648438 4.71875 -6.984375 6.375 -6.984375 L 8.28125 -6.984375 L 8.28125 -7.875 C 8.28125 -8.5625 8.070312 -9.109375 7.65625 -9.515625 C 7.25 -9.929688 6.644531 -10.140625 5.84375 -10.140625 C 5.144531 -10.140625 4.554688 -9.960938 4.078125 -9.609375 C 3.609375 -9.253906 3.375 -8.820312 3.375 -8.3125 L 1.390625 -8.3125 C 1.390625 -8.882812 1.59375 -9.4375 2 -9.96875 C 2.40625 -10.507812 2.957031 -10.9375 3.65625 -11.25 C 4.363281 -11.5625 5.132812 -11.71875 5.96875 -11.71875 C 7.289062 -11.71875 8.328125 -11.382812 9.078125 -10.71875 C 9.828125 -10.0625 10.21875 -9.148438 10.25 -7.984375 L 10.25 -2.6875 C 10.25 -1.632812 10.382812 -0.796875 10.65625 -0.171875 L 10.65625 0 Z M 5.328125 -1.5 C 5.941406 -1.5 6.523438 -1.65625 7.078125 -1.96875 C 7.628906 -2.289062 8.03125 -2.707031 8.28125 -3.21875 L 8.28125 -5.578125 L 6.75 -5.578125 C 4.332031 -5.578125 3.125 -4.875 3.125 -3.46875 C 3.125 -2.851562 3.328125 -2.367188 3.734375 -2.015625 C 4.148438 -1.671875 4.679688 -1.5 5.328125 -1.5 Z M 5.328125 -1.5 "/></g></g></g><g fill="#ffffff" fill-opacity="1"><g transform="translate(180.655276, 336.460915)"><g/></g></g><g fill="#ffffff" fill-opacity="1"><g transform="translate(190.621707, 336.460915)"><g><path d="M 10.34375 -4.046875 L 3.859375 -4.046875 L 2.40625 0 L 0.296875 0 L 6.21875 -15.484375 L 8 -15.484375 L 13.921875 0 L 11.828125 0 Z M 4.484375 -5.71875 L 9.734375 -5.71875 L 7.109375 -12.96875 Z M 4.484375 -5.71875 "/></g></g></g><g fill="#ffffff" fill-opacity="1"><g transform="translate(209.403776, 336.460915)"><g><path d="M 6.109375 -1.390625 C 6.804688 -1.390625 7.414062 -1.601562 7.9375 -2.03125 C 8.46875 -2.457031 8.757812 -2.988281 8.8125 -3.625 L 10.671875 -3.625 C 10.640625 -2.96875 10.414062 -2.335938 10 -1.734375 C 9.582031 -1.140625 9.023438 -0.664062 8.328125 -0.3125 C 7.628906 0.0390625 6.890625 0.21875 6.109375 0.21875 C 4.535156 0.21875 3.285156 -0.300781 2.359375 -1.34375 C 1.441406 -2.394531 0.984375 -3.828125 0.984375 -5.640625 L 0.984375 -5.984375 C 0.984375 -7.097656 1.1875 -8.09375 1.59375 -8.96875 C 2.007812 -9.84375 2.597656 -10.519531 3.359375 -11 C 4.128906 -11.476562 5.039062 -11.71875 6.09375 -11.71875 C 7.382812 -11.71875 8.457031 -11.332031 9.3125 -10.5625 C 10.164062 -9.789062 10.617188 -8.785156 10.671875 -7.546875 L 8.8125 -7.546875 C 8.757812 -8.296875 8.476562 -8.910156 7.96875 -9.390625 C 7.457031 -9.867188 6.832031 -10.109375 6.09375 -10.109375 C 5.09375 -10.109375 4.316406 -9.742188 3.765625 -9.015625 C 3.222656 -8.296875 2.953125 -7.257812 2.953125 -5.90625 L 2.953125 -5.53125 C 2.953125 -4.207031 3.222656 -3.1875 3.765625 -2.46875 C 4.304688 -1.75 5.085938 -1.390625 6.109375 -1.390625 Z M 6.109375 -1.390625 "/></g></g></g><g fill="#ffffff" fill-opacity="1"><g transform="translate(225.378459, 336.460915)"><g><path d="M 6.265625 0.21875 C 4.703125 0.21875 3.429688 -0.289062 2.453125 -1.3125 C 1.472656 -2.34375 0.984375 -3.71875 0.984375 -5.4375 L 0.984375 -5.796875 C 0.984375 -6.941406 1.203125 -7.960938 1.640625 -8.859375 C 2.078125 -9.753906 2.6875 -10.453125 3.46875 -10.953125 C 4.25 -11.460938 5.097656 -11.71875 6.015625 -11.71875 C 7.515625 -11.71875 8.675781 -11.222656 9.5 -10.234375 C 10.332031 -9.253906 10.75 -7.847656 10.75 -6.015625 L 10.75 -5.1875 L 2.953125 -5.1875 C 2.984375 -4.050781 3.316406 -3.132812 3.953125 -2.4375 C 4.585938 -1.738281 5.394531 -1.390625 6.375 -1.390625 C 7.0625 -1.390625 7.644531 -1.53125 8.125 -1.8125 C 8.613281 -2.101562 9.039062 -2.484375 9.40625 -2.953125 L 10.609375 -2.015625 C 9.640625 -0.523438 8.191406 0.21875 6.265625 0.21875 Z M 6.015625 -10.109375 C 5.222656 -10.109375 4.554688 -9.816406 4.015625 -9.234375 C 3.484375 -8.660156 3.148438 -7.851562 3.015625 -6.8125 L 8.78125 -6.8125 L 8.78125 -6.953125 C 8.726562 -7.953125 8.457031 -8.726562 7.96875 -9.28125 C 7.488281 -9.832031 6.835938 -10.109375 6.015625 -10.109375 Z M 6.015625 -10.109375 "/></g></g></g><g fill="#ffffff" fill-opacity="1"><g transform="translate(241.491395, 336.460915)"><g><path d="M 8.1875 -3.046875 C 8.1875 -3.578125 7.984375 -3.988281 7.578125 -4.28125 C 7.179688 -4.582031 6.484375 -4.835938 5.484375 -5.046875 C 4.492188 -5.265625 3.707031 -5.519531 3.125 -5.8125 C 2.539062 -6.113281 2.109375 -6.46875 1.828125 -6.875 C 1.546875 -7.289062 1.40625 -7.78125 1.40625 -8.34375 C 1.40625 -9.289062 1.800781 -10.085938 2.59375 -10.734375 C 3.394531 -11.390625 4.414062 -11.71875 5.65625 -11.71875 C 6.957031 -11.71875 8.015625 -11.378906 8.828125 -10.703125 C 9.640625 -10.035156 10.046875 -9.175781 10.046875 -8.125 L 8.078125 -8.125 C 8.078125 -8.664062 7.847656 -9.128906 7.390625 -9.515625 C 6.929688 -9.910156 6.351562 -10.109375 5.65625 -10.109375 C 4.9375 -10.109375 4.375 -9.953125 3.96875 -9.640625 C 3.570312 -9.328125 3.375 -8.914062 3.375 -8.40625 C 3.375 -7.9375 3.5625 -7.582031 3.9375 -7.34375 C 4.3125 -7.101562 4.988281 -6.867188 5.96875 -6.640625 C 6.945312 -6.421875 7.742188 -6.160156 8.359375 -5.859375 C 8.972656 -5.554688 9.425781 -5.1875 9.71875 -4.75 C 10.007812 -4.320312 10.15625 -3.800781 10.15625 -3.1875 C 10.15625 -2.164062 9.742188 -1.34375 8.921875 -0.71875 C 8.097656 -0.09375 7.03125 0.21875 5.71875 0.21875 C 4.800781 0.21875 3.988281 0.0546875 3.28125 -0.265625 C 2.570312 -0.597656 2.015625 -1.054688 1.609375 -1.640625 C 1.210938 -2.222656 1.015625 -2.859375 1.015625 -3.546875 L 2.984375 -3.546875 C 3.015625 -2.878906 3.273438 -2.351562 3.765625 -1.96875 C 4.265625 -1.582031 4.914062 -1.390625 5.71875 -1.390625 C 6.46875 -1.390625 7.066406 -1.539062 7.515625 -1.84375 C 7.960938 -2.144531 8.1875 -2.546875 8.1875 -3.046875 Z M 8.1875 -3.046875 "/></g></g></g><g fill="#ffffff" fill-opacity="1"><g transform="translate(257.295933, 336.460915)"><g><path d="M 8.1875 -3.046875 C 8.1875 -3.578125 7.984375 -3.988281 7.578125 -4.28125 C 7.179688 -4.582031 6.484375 -4.835938 5.484375 -5.046875 C 4.492188 -5.265625 3.707031 -5.519531 3.125 -5.8125 C 2.539062 -6.113281 2.109375 -6.46875 1.828125 -6.875 C 1.546875 -7.289062 1.40625 -7.78125 1.40625 -8.34375 C 1.40625 -9.289062 1.800781 -10.085938 2.59375 -10.734375 C 3.394531 -11.390625 4.414062 -11.71875 5.65625 -11.71875 C 6.957031 -11.71875 8.015625 -11.378906 8.828125 -10.703125 C 9.640625 -10.035156 10.046875 -9.175781 10.046875 -8.125 L 8.078125 -8.125 C 8.078125 -8.664062 7.847656 -9.128906 7.390625 -9.515625 C 6.929688 -9.910156 6.351562 -10.109375 5.65625 -10.109375 C 4.9375 -10.109375 4.375 -9.953125 3.96875 -9.640625 C 3.570312 -9.328125 3.375 -8.914062 3.375 -8.40625 C 3.375 -7.9375 3.5625 -7.582031 3.9375 -7.34375 C 4.3125 -7.101562 4.988281 -6.867188 5.96875 -6.640625 C 6.945312 -6.421875 7.742188 -6.160156 8.359375 -5.859375 C 8.972656 -5.554688 9.425781 -5.1875 9.71875 -4.75 C 10.007812 -4.320312 10.15625 -3.800781 10.15625 -3.1875 C 10.15625 -2.164062 9.742188 -1.34375 8.921875 -0.71875 C 8.097656 -0.09375 7.03125 0.21875 5.71875 0.21875 C 4.800781 0.21875 3.988281 0.0546875 3.28125 -0.265625 C 2.570312 -0.597656 2.015625 -1.054688 1.609375 -1.640625 C 1.210938 -2.222656 1.015625 -2.859375 1.015625 -3.546875 L 2.984375 -3.546875 C 3.015625 -2.878906 3.273438 -2.351562 3.765625 -1.96875 C 4.265625 -1.582031 4.914062 -1.390625 5.71875 -1.390625 C 6.46875 -1.390625 7.066406 -1.539062 7.515625 -1.84375 C 7.960938 -2.144531 8.1875 -2.546875 8.1875 -3.046875 Z M 8.1875 -3.046875 "/></g></g></g><g fill="#ffffff" fill-opacity="1"><g transform="translate(273.100471, 336.460915)"><g><path d="M 3.625 0 L 1.65625 0 L 1.65625 -11.5 L 3.625 -11.5 Z M 3.640625 -16.328125 L 6.03125 -16.328125 L 3.171875 -13.1875 L 1.59375 -13.1875 Z M 3.640625 -16.328125 "/></g></g></g><g fill="#ffffff" fill-opacity="1"><g transform="translate(283.056267, 336.460915)"><g><path d="M 5.28125 -2.671875 L 8.140625 -11.5 L 10.140625 -11.5 L 6.015625 0 L 4.515625 0 L 0.34375 -11.5 L 2.359375 -11.5 Z M 5.28125 -2.671875 "/></g></g></g><g fill="#ffffff" fill-opacity="1"><g transform="translate(298.180224, 336.460915)"><g><path d="M 6.265625 0.21875 C 4.703125 0.21875 3.429688 -0.289062 2.453125 -1.3125 C 1.472656 -2.34375 0.984375 -3.71875 0.984375 -5.4375 L 0.984375 -5.796875 C 0.984375 -6.941406 1.203125 -7.960938 1.640625 -8.859375 C 2.078125 -9.753906 2.6875 -10.453125 3.46875 -10.953125 C 4.25 -11.460938 5.097656 -11.71875 6.015625 -11.71875 C 7.515625 -11.71875 8.675781 -11.222656 9.5 -10.234375 C 10.332031 -9.253906 10.75 -7.847656 10.75 -6.015625 L 10.75 -5.1875 L 2.953125 -5.1875 C 2.984375 -4.050781 3.316406 -3.132812 3.953125 -2.4375 C 4.585938 -1.738281 5.394531 -1.390625 6.375 -1.390625 C 7.0625 -1.390625 7.644531 -1.53125 8.125 -1.8125 C 8.613281 -2.101562 9.039062 -2.484375 9.40625 -2.953125 L 10.609375 -2.015625 C 9.640625 -0.523438 8.191406 0.21875 6.265625 0.21875 Z M 6.015625 -10.109375 C 5.222656 -10.109375 4.554688 -9.816406 4.015625 -9.234375 C 3.484375 -8.660156 3.148438 -7.851562 3.015625 -6.8125 L 8.78125 -6.8125 L 8.78125 -6.953125 C 8.726562 -7.953125 8.457031 -8.726562 7.96875 -9.28125 C 7.488281 -9.832031 6.835938 -10.109375 6.015625 -10.109375 Z M 6.015625 -10.109375 "/></g></g></g><g fill="#ffffff" fill-opacity="1"><g transform="translate(314.29316, 336.460915)"><g><path d="M 3.625 0 L 1.65625 0 L 1.65625 -16.34375 L 3.625 -16.34375 Z M 3.625 0 "/></g></g></g><g clip-path="url(#cd45c0f8b2)"><path fill="#ff1616" d="M 359.027344 220.332031 L 359.027344 235.089844 L 373.132812 235.089844 L 373.132812 242.238281 L 359.027344 242.238281 L 359.027344 257.136719 L 351.59375 257.136719 L 351.59375 242.238281 L 337.488281 242.238281 L 337.488281 235.089844 L 351.59375 235.089844 L 351.59375 220.332031 Z M 359.027344 220.332031 " fill-opacity="1" fill-rule="nonzero"/></g><g fill="#ffffff" fill-opacity="1"><g transform="translate(5.105944, 297.099352)"><g><path d="M 36.015625 -7.421875 L 14.597656 -7.421875 L 14.597656 -17.195312 L 34.023438 -17.195312 L 34.023438 -24.554688 L 14.597656 -24.554688 L 14.597656 -34.265625 L 35.414062 -34.265625 L 35.414062 -41.625 L 5.128906 -41.625 L 5.128906 0 L 36.015625 0 Z M 36.015625 -7.421875 "/></g></g></g><g fill="#ffffff" fill-opacity="1"><g transform="translate(45.405174, 297.099352)"><g><path d="M 18.039062 -33 C 8.929688 -33 1.570312 -26.847656 1.570312 -15.804688 C 1.570312 -4.886719 8.324219 0.84375 17.253906 0.84375 C 25.640625 0.84375 31.792969 -3.316406 33.058594 -11.402344 L 23.707031 -11.402344 C 22.984375 -7.660156 20.691406 -5.671875 17.796875 -5.671875 C 13.875 -5.671875 11.28125 -8.929688 11.28125 -16.410156 C 11.28125 -23.226562 13.816406 -26.484375 17.796875 -26.484375 C 20.933594 -26.484375 23.164062 -24.675781 23.828125 -20.269531 L 33.058594 -20.269531 C 32.578125 -27.449219 27.027344 -33 18.039062 -33 Z M 18.039062 -33 "/></g></g></g><g fill="#ffffff" fill-opacity="1"><g transform="translate(82.507008, 297.099352)"><g><path d="M 18.519531 -33 C 7.84375 -33 1.570312 -26.121094 1.570312 -16.109375 C 1.570312 -6.09375 7.84375 0.84375 18.519531 0.84375 C 29.136719 0.84375 35.472656 -6.09375 35.472656 -16.109375 C 35.472656 -26.121094 29.136719 -33 18.519531 -33 Z M 18.519531 -5.671875 C 13.996094 -5.671875 11.28125 -9.410156 11.28125 -16.109375 C 11.28125 -22.804688 13.996094 -26.484375 18.519531 -26.484375 C 22.984375 -26.484375 25.699219 -22.804688 25.699219 -16.109375 C 25.699219 -9.410156 22.984375 -5.671875 18.519531 -5.671875 Z M 18.519531 -5.671875 "/></g></g></g><g fill="#ffffff" fill-opacity="1"><g transform="translate(122.021967, 297.099352)"><g><path d="M 34.566406 -24.132812 C 33.84375 -29.742188 29.921875 -33 23.164062 -33 C 20.148438 -33 17.855469 -32.394531 15.683594 -30.949219 L 13.03125 -27.085938 L 13.03125 -32.15625 L 3.558594 -32.15625 L 3.558594 0 L 13.03125 0 L 13.03125 -14.902344 C 13.03125 -23.105469 15.804688 -26.484375 19.546875 -26.484375 C 23.226562 -26.484375 25.035156 -24.433594 25.277344 -21.175781 C 25.398438 -19.546875 25.398438 -17.917969 25.398438 -16.710938 L 25.398438 0 L 34.871094 0 L 34.871094 -18.160156 C 34.871094 -20.753906 34.808594 -22.503906 34.566406 -24.132812 Z M 34.566406 -24.132812 "/></g></g></g><g fill="#ffffff" fill-opacity="1"><g transform="translate(162.62282, 297.099352)"><g><path d="M 18.519531 -33 C 7.84375 -33 1.570312 -26.121094 1.570312 -16.109375 C 1.570312 -6.09375 7.84375 0.84375 18.519531 0.84375 C 29.136719 0.84375 35.472656 -6.09375 35.472656 -16.109375 C 35.472656 -26.121094 29.136719 -33 18.519531 -33 Z M 18.519531 -5.671875 C 13.996094 -5.671875 11.28125 -9.410156 11.28125 -16.109375 C 11.28125 -22.804688 13.996094 -26.484375 18.519531 -26.484375 C 22.984375 -26.484375 25.699219 -22.804688 25.699219 -16.109375 C 25.699219 -9.410156 22.984375 -5.671875 18.519531 -5.671875 Z M 18.519531 -5.671875 "/></g></g></g><g fill="#ff1616" fill-opacity="1"><g transform="translate(208.53812, 298.984572)"><g><path d="M 55.332031 -43.933594 L 37.882812 -43.933594 L 30.433594 -11.140625 L 22.984375 -43.933594 L 5.09375 -43.933594 L 5.09375 0 L 16.554688 0 L 16.554688 -18.464844 C 16.554688 -22.285156 16.554688 -27.953125 16.425781 -32.410156 C 17.128906 -27.953125 18.402344 -22.285156 19.417969 -18.464844 L 24.324219 0 L 36.101562 0 L 40.941406 -18.464844 C 41.960938 -22.347656 43.234375 -27.953125 43.996094 -32.410156 C 43.871094 -27.953125 43.871094 -22.285156 43.871094 -18.464844 L 43.871094 0 L 55.332031 0 Z M 55.332031 -43.933594 "/></g></g></g><g fill="#ff1616" fill-opacity="1"><g transform="translate(267.302406, 298.984572)"><g><path d="M 36.738281 -17.445312 C 36.738281 -26.234375 31.007812 -34.890625 19.675781 -34.890625 C 8.339844 -34.890625 1.527344 -26.804688 1.527344 -16.871094 C 1.527344 -4.902344 9.296875 0.890625 19.039062 0.890625 C 27.761719 0.890625 34.128906 -3.4375 36.101562 -11.140625 L 24.832031 -11.140625 C 24.386719 -8.53125 22.414062 -6.875 19.164062 -6.875 C 15.917969 -6.875 13.433594 -8.46875 12.863281 -14.136719 L 36.546875 -14.136719 C 36.675781 -15.28125 36.738281 -16.425781 36.738281 -17.445312 Z M 19.101562 -27.125 C 22.15625 -27.125 24.132812 -25.148438 24.769531 -21.140625 L 13.242188 -21.140625 C 14.007812 -25.339844 16.109375 -27.125 19.101562 -27.125 Z M 19.101562 -27.125 "/></g></g></g><g fill="#ff1616" fill-opacity="1"><g transform="translate(305.566035, 298.984572)"><g><path d="M 39.15625 -46.796875 L 27.695312 -46.796875 L 27.695312 -29.605469 L 25.46875 -33.238281 C 23.75 -34.253906 20.4375 -34.890625 17.636719 -34.890625 C 8.914062 -34.890625 1.527344 -28.332031 1.527344 -16.234375 C 1.527344 -6.175781 7.257812 0.890625 16.492188 0.890625 C 19.929688 0.890625 23.238281 0.191406 25.148438 -1.210938 L 27.695312 -4.964844 L 27.695312 0 L 39.15625 0 Z M 20.4375 -6.875 C 16.425781 -6.875 13.242188 -10.441406 13.242188 -16.808594 C 13.242188 -23.75 16.300781 -27.125 20.757812 -27.125 C 24.195312 -27.125 27.695312 -24.832031 27.695312 -18.019531 L 27.695312 -16.554688 C 27.695312 -9.421875 24.640625 -6.875 20.4375 -6.875 Z M 20.4375 -6.875 "/></g></g></g></svg>