<?xml version="1.0" encoding="UTF-8"?>
<svg id="Camada_1" xmlns="http://www.w3.org/2000/svg" viewBox="0 0 162.6 195.99">
  <path d="M81.16,0c14.69,15.47,50.09,47.81,61.63,61.25,26.13,30.44,26.58,75.78.37,106.39-32.81,38.33-92.57,37.63-124.75-1.12-25.33-30.51-24.22-75.42,1.5-105.27C32.26,46.91,66.14,16.52,81.16,0ZM79.28,68.93c.26,8.17-1.23,3.82-10.49,6.37-17.8,4.9-20.74,26.95-8.24,36.34,4.25,3.19,13.29,5.3,18.54,6.93v20.6c-9.23-2.67-9.04-11.41-9.93-11.8l-18.36,1.87c-1.7.7,2.02,10.69,7.87,15.36,8.19,6.54,19.97,5.93,20.42,6.93v9.37c7.93,1.07,5.18.04,5.62-9.74,26.73.52,36.6-27.29,21.17-39.9-4.6-3.76-15.16-6.92-21.17-8.43l.19-17.42c4.39,1.91,6.05,3.91,7.87,8.24,5.88-.43,11.76-1.67,17.61-2.62-2.53-11.98-13.77-16.79-25.1-16.86-2.29-1.03,3.21-6.63-5.99-5.24Z" fill="#fe1616"/>
  <g>
    <path d="M79.28,68.93c9.2-1.39,3.71,4.22,5.99,5.24,11.33.07,22.57,4.88,25.1,16.86-5.85.95-11.73,2.19-17.61,2.62-1.81-4.33-3.47-6.34-7.87-8.24l-.19,17.42c6.01,1.51,16.56,4.67,21.17,8.43,15.43,12.6,5.56,40.42-21.17,39.9-.44,9.78,2.31,10.81-5.62,9.74v-9.37c-.45-1-12.22-.39-20.42-6.93-5.85-4.67-9.56-14.66-7.87-15.36l18.36-1.87c.88.39.7,9.13,9.93,11.8v-20.6c-5.26-1.63-14.29-3.74-18.54-6.93-12.5-9.39-9.56-31.44,8.24-36.34,9.25-2.55,10.75,1.8,10.49-6.37ZM77.79,85.41c-5.81.37-12.33,12.13,1.12,16.11l.19-15.92c-.21-.28-.78-.22-1.31-.19ZM84.9,120.25l-.19,18.92c13.91-1.23,14.22-16.15.19-18.92Z" fill="#fdfbfd"/>
    <path d="M77.79,85.41c.53-.03,1.1-.1,1.31.19l-.19,15.92c-13.46-3.98-6.93-15.74-1.12-16.11Z" fill="#fe1616"/>
    <path d="M84.9,120.25c14.04,2.77,13.73,17.69-.19,18.92l.19-18.92Z" fill="#fe1616"/>
  </g>
</svg>